<svg width="21" height="21" viewBox="0 0 21 21" fill="none" xmlns="http://www.w3.org/2000/svg">
<circle cx="10.5" cy="10.5" r="10.5" fill="#FFDFB7"/>
<circle cx="10.5" cy="10.5" r="6.5" fill="#F3A536"/>
<path fill-rule="evenodd" clip-rule="evenodd" d="M9.23747 9.729C9.09547 9.729 8.98047 9.6105 9.00247 9.4705C9.13997 8.62 9.78797 8 10.9125 8C12.0375 8 12.796 8.68 12.796 9.6075C12.796 10.2795 12.4635 10.7515 11.901 11.094C11.351 11.4235 11.194 11.653 11.194 12.099V12.114C11.194 12.1803 11.1676 12.2439 11.1207 12.2908C11.0739 12.3377 11.0103 12.364 10.944 12.364H10.559C10.4931 12.364 10.4299 12.338 10.3831 12.2917C10.3363 12.2453 10.3096 12.1824 10.309 12.1165L10.3075 12.0165C10.286 11.406 10.546 11.016 11.13 10.6605C11.645 10.3445 11.8285 10.093 11.8285 9.6465C11.8285 9.157 11.4495 8.7975 10.8655 8.7975C10.361 8.7975 10.0105 9.062 9.89647 9.4985C9.86347 9.6255 9.75747 9.729 9.62647 9.729H9.23797H9.23747ZM10.748 14C11.059 14 11.2955 13.763 11.2955 13.455C11.2955 13.146 11.059 12.909 10.748 12.909C10.445 12.909 10.2045 13.146 10.2045 13.4545C10.2045 13.763 10.445 14 10.748 14Z" fill="white"/>
</svg>
